# xmcd CD database file
#
# Track frame offsets:
#	150
#	17199
#	26141
#	34946
#	37846
#	40995
#	44182
#	50897
#	56906
#	64085
#	69410
#	75806
#	92442
#	100416
#	107759
#	114571
#	130272
#	141865
#	165225
#	190740
#	196059
#	217282
#	236319
#
# Disc length: 3572 seconds
#
# Revision: 0
# Processed by: cddbd v1.5.2PL0 Copyright (c) Steve Scherf et al.
# Submitted via: CDex 1.70beta2
#
DISCID=450df217
DTITLE=Various Artist - Les polyphonies de polynesie - Polynesian Polyphonies
DYEAR=2000
DGENRE=South Sea
TTITLE0=Iles Australes - Aua te fenua e - (1968)
TTITLE1=Iles Marquises - E hoi e - (1993)
TTITLE2=Iles sous le vent - Tarava i te Matamua - (1960)
TTITLE3=Ile de Bora Bora - Ia ora na oe para mai e - (1960)
TTITLE4=Chant rituel de Bora Bora - Himene oto marama - (1960)
TTITLE5=Ile de Bora Bora - Faahanahanaraa upootiaraa - (1960)
TTITLE6=Iles Marquises - Matuita ma - (1965)
TTITLE7=Archipel des Australes - Eiaha haere i te monana - (1968)
TTITLE8=Ile de la Societe - Ia ora i te farerei - (1966)
TTITLE9=Iles Australes - Ua tupu atua - (1966)
TTITLE10=Iles Marquises - O'iri kuhu - (1993)
TTITLE11=Tahiti Groupe Paparai - Murnau Tane - (1966)
TTITLE12=Iles Tuamotu - Te enua e - (1969)
TTITLE13=Iles Tuamotu - Te reva iti - (1969)
TTITLE14=Nukuiva iles Marquises - Haka Eneana - (1993)
TTITLE15=Ile de Tahiti - I vaiete nei - Tero - (1972)
TTITLE16=Iles du vent - Ha'a Miri - (1972)
TTITLE17=Tahiti Groupe Tiurai - Himene papara - (1959)
TTITLE18=Iles de Thahiti - Himene pirae - (1959)
TTITLE19=Archipel des Tuamotu - Tokere - (1969)
TTITLE20=Ile de Thahiti - Himene Tatutira - (1959)
TTITLE21=Ua Huka iles Marquises - Kaoha tatou kaoha otou e - (1993)
TTITLE22=Arue ile de Tahiti - Pomare ari'i tarahoi e - (1959)
EXTD=YEAR: 2000
EXTT0=
EXTT1=
EXTT2=
EXTT3=
EXTT4=
EXTT5=
EXTT6=
EXTT7=
EXTT8=
EXTT9=
EXTT10=
EXTT11=
EXTT12=
EXTT13=
EXTT14=
EXTT15=
EXTT16=
EXTT17=
EXTT18=
EXTT19=
EXTT20=
EXTT21=
EXTT22=
PLAYORDER=
